<?xml version="1.0" standalone="no"?>
<!DOCTYPE svg PUBLIC "-//W3C//DTD SVG 20010904//EN"
 "http://www.w3.org/TR/2001/REC-SVG-20010904/DTD/svg10.dtd">
<svg version="1.0" xmlns="http://www.w3.org/2000/svg"
 width="225.000000pt" height="225.000000pt" viewBox="0 0 225.000000 225.000000"
 preserveAspectRatio="xMidYMid meet">
<metadata>
Created by potrace 1.11, written by Peter Selinger 2001-2013
</metadata>
<g transform="translate(0.000000,225.000000) scale(0.100000,-0.100000)"
fill="#000000" stroke="none">
<path d="M1530 2243 c-38 -15 -74 -50 -90 -87 -16 -37 -18 -80 -16 -448 1
-396 2 -407 22 -435 27 -36 81 -73 108 -73 20 0 22 -5 22 -59 0 -77 12 -91 80
-91 l54 0 0 -380 0 -380 -51 0 c-49 0 -50 -1 -47 -28 2 -16 8 -26 17 -24 31 6
37 -17 36 -128 l-1 -110 103 0 c100 0 103 1 104 23 0 12 1 65 2 117 2 76 5 95
17 96 36 2 40 5 40 29 0 23 -3 25 -50 25 l-50 0 0 380 0 380 48 0 c66 0 81 18
79 92 l-2 56 35 6 c47 7 98 52 114 99 9 28 13 137 14 425 1 433 -1 444 -69
493 -33 24 -38 24 -269 26 -129 1 -242 -1 -250 -4z"/>
<path d="M609 2043 c0 -21 0 -138 0 -260 0 -123 -3 -224 -7 -224 -4 -1 -83 -2
-177 -3 -177 -3 -208 -9 -246 -52 -42 -48 -42 -44 -42 -659 0 -656 -2 -639 67
-688 l31 -22 467 0 c459 0 467 0 495 21 15 12 37 36 48 55 19 33 20 54 21 619
0 397 -3 596 -11 618 -14 44 -56 86 -96 98 -19 6 -121 10 -226 10 l-193 -1 0
262 0 263 -65 0 -65 0 -1 -37z"/>
</g>
</svg>
